<svg xmlns="http://www.w3.org/2000/svg" xmlns:xlink="http://www.w3.org/1999/xlink" width="512" height="512" viewBox="0 0 512 512">
  <defs>
    <linearGradient id="linear-gradient" x1="0.5" x2="0.5" y2="1" gradientUnits="objectBoundingBox">
      <stop offset="0" stop-color="#19c4eb"/>
      <stop offset="1" stop-color="#418fcd"/>
    </linearGradient>
    <linearGradient id="linear-gradient-2" x1="0.5" x2="0.5" y2="1" gradientUnits="objectBoundingBox">
      <stop offset="0" stop-color="#3c96d1"/>
      <stop offset="1" stop-color="#17c6ed"/>
    </linearGradient>
    <filter id="Intersection_2" x="206.749" y="350.682" width="98.816" height="139.211" filterUnits="userSpaceOnUse">
      <feOffset dy="3" input="SourceAlpha"/>
      <feGaussianBlur stdDeviation="3" result="blur"/>
      <feFlood flood-opacity="0.161"/>
      <feComposite operator="in" in2="blur"/>
      <feComposite in="SourceGraphic"/>
    </filter>
  </defs>
  <g id="via-logo-512px-nb" transform="translate(-1201 -1332)">
    <rect id="Rectangle_17" data-name="Rectangle 17" width="512" height="512" rx="10" transform="translate(1201 1332)" fill="none"/>
    <g id="Group_13" data-name="Group 13" transform="translate(41 -15.795)">
      <g id="Group_12" data-name="Group 12" transform="translate(1240 1382.795)">
        <path id="Path_8" data-name="Path 8" d="M40.4,0A40.4,40.4,0,0,1,80.8,40.4V282.809a40.4,40.4,0,0,1-80.8,0V40.4A40.4,40.4,0,0,1,40.4,0Z" transform="translate(0 40.401) rotate(-30)" fill="url(#linear-gradient)"/>
        <rect id="Rectangle_13" data-name="Rectangle 13" width="80.802" height="323.21" rx="40.401" transform="translate(282.809 0) rotate(30)" fill="url(#linear-gradient-2)"/>
      </g>
      <g transform="matrix(1, 0, 0, 1, 1160, 1347.79)" filter="url(#Intersection_2)">
        <path id="Intersection_2-2" data-name="Intersection 2" d="M23.878,117.67a40.879,40.879,0,0,1-3.671-1.88A40.123,40.123,0,0,1,5.419,101l-.344-.6A40.379,40.379,0,0,1,5.419,60.6L40.408,0,75.4,60.6a40.38,40.38,0,0,1,.344,39.806l-.344.6A40.123,40.123,0,0,1,60.609,115.79q-1.757,1.014-3.567,1.833a40.367,40.367,0,0,1-33.164.047Z" transform="translate(296.56 477.89) rotate(180)" fill="url(#linear-gradient)"/>
      </g>
    </g>
  </g>
</svg>
