<svg xmlns="http://www.w3.org/2000/svg" xmlns:xlink="http://www.w3.org/1999/xlink" width="50" height="53.891" viewBox="0 0 50 53.891">
  <defs>
    <linearGradient id="linear-gradient" x1="0.5" x2="0.5" y2="1" gradientUnits="objectBoundingBox">
      <stop offset="0" stop-color="#19c4eb"/>
      <stop offset="1" stop-color="#204051"/>
    </linearGradient>
    <filter id="Path_8" x="3.354" y="2.329" width="31.736" height="40.447" filterUnits="userSpaceOnUse">
      <feOffset dy="3" input="SourceAlpha"/>
      <feGaussianBlur stdDeviation="1.5" result="blur"/>
      <feFlood flood-color="#33a2d8" flood-opacity="0.439"/>
      <feComposite operator="in" in2="blur"/>
      <feComposite in="SourceGraphic"/>
    </filter>
    <filter id="Intersection_3" x="16.704" y="32.991" width="16.935" height="20.901" filterUnits="userSpaceOnUse">
      <feOffset dy="3" input="SourceAlpha"/>
      <feGaussianBlur stdDeviation="1.5" result="blur-2"/>
      <feFlood flood-color="#33a2d8" flood-opacity="0.439"/>
      <feComposite operator="in" in2="blur-2"/>
      <feComposite in="SourceGraphic"/>
    </filter>
    <linearGradient id="linear-gradient-3" x1="0.5" x2="0.5" y2="1" gradientUnits="objectBoundingBox">
      <stop offset="0" stop-color="#204051"/>
      <stop offset="1" stop-color="#1cc0e9"/>
    </linearGradient>
    <filter id="Rectangle_13" x="15.253" y="2.329" width="31.736" height="40.447" filterUnits="userSpaceOnUse">
      <feOffset dy="3" input="SourceAlpha"/>
      <feGaussianBlur stdDeviation="1.5" result="blur-3"/>
      <feFlood flood-color="#1ebce7" flood-opacity="0.212"/>
      <feComposite operator="in" in2="blur-3"/>
      <feComposite in="SourceGraphic"/>
    </filter>
  </defs>
  <g id="via-logo-dark-50px" transform="translate(-3752 -284)">
    <rect id="Rectangle_21" data-name="Rectangle 21" width="50" height="50" transform="translate(3752 284)" fill="none"/>
    <g id="Group_35" data-name="Group 35" transform="translate(3759.854 287.829)">
      <g transform="matrix(1, 0, 0, 1, -7.85, -3.83)" filter="url(#Path_8)">
        <path id="Path_8-2" data-name="Path 8" d="M3.966,0A3.966,3.966,0,0,1,7.933,3.966v23.8a3.966,3.966,0,0,1-7.933,0V3.966A3.966,3.966,0,0,1,3.966,0Z" transform="translate(7.85 7.8) rotate(-30)" fill="url(#linear-gradient)"/>
      </g>
      <g transform="matrix(1, 0, 0, 1, -7.85, -3.83)" filter="url(#Intersection_3)">
        <path id="Intersection_3-2" data-name="Intersection 3" d="M2.071,11.418l-.088-.049a4,4,0,0,1-.457-.307l-.015-.012L1.5,11.039A3.956,3.956,0,0,1,.532,9.916L.488,9.84A3.965,3.965,0,0,1,.532,5.95L3.967,0,7.4,5.95A3.964,3.964,0,0,1,7.43,9.869L7.4,9.916a3.973,3.973,0,0,1-.6.794l-.012.012-.012.012a3.972,3.972,0,0,1-.827.634q-.117.067-.236.126l-.006,0-.016.008a3.963,3.963,0,0,1-3.621-.088Z" transform="translate(29.14 46.39) rotate(180)" fill="url(#linear-gradient)"/>
      </g>
      <g transform="matrix(1, 0, 0, 1, -7.85, -3.83)" filter="url(#Rectangle_13)">
        <rect id="Rectangle_13-2" data-name="Rectangle 13" width="7.933" height="31.732" rx="3.966" transform="translate(35.62 3.83) rotate(30)" fill="url(#linear-gradient-3)"/>
      </g>
    </g>
  </g>
</svg>
